<?xml version="1.0" encoding="utf-8"?>
<!-- Svg Vector Icons : http://www.onlinewebfonts.com/icon -->
<!DOCTYPE svg PUBLIC "-//W3C//DTD SVG 1.1//EN" "http://www.w3.org/Graphics/SVG/1.1/DTD/svg11.dtd">
<svg version="1.1" xmlns="http://www.w3.org/2000/svg" xmlns:xlink="http://www.w3.org/1999/xlink" x="0px" y="0px" viewBox="0 0 256 256" enable-background="new 0 0 256 256" xml:space="preserve">
<metadata> Svg Vector Icons : http://www.onlinewebfonts.com/icon </metadata>
<g><g><g><path fill="#000000" d="M10,128c0-32.5,11.6-60.3,34.7-83.3C67.7,21.6,95.5,10,128,10c32.5,0,60.3,11.6,83.3,34.7C234.4,67.7,246,95.5,246,128c0,32.5-11.6,60.3-34.7,83.3C188.3,234.4,160.5,246,128,246c-32.5,0-60.3-11.6-83.3-34.7S10,160.5,10,128z M211.6,128.7L128,45.1l-83.6,83.6l23.9,23.9l42.8-42.8v102.5h33.7V109.7l42.8,42.8L211.6,128.7z"/></g></g></g>
</svg>